# xmcd
#
# Track frame offsets:
#	153
#	13695
#	26125
#	38585
#	54494
#	70220
#	82393
#	97620
#	111672
#	124364
#	140455
#	154635
#
# Disc length: 2212 seconds
#
# Revision: 1
# Processed by: cddbd v1.5.2PL0 Copyright (c) Steve Scherf et al.
# Submitted via: audiograbber 1.83.01
#
DISCID=a208a20c
DTITLE=Lindsay Butler - picks on stan coster
DYEAR=1900
DGENRE=Country
TTITLE0=cunamulla fella
TTITLE1=lead me down to the stockyard
TTITLE2=you can never do wrong in a mothers eyes
TTITLE3=I'll juste be a driftet 'till i die
TTITLE4=the old gidgee tree
TTITLE5=road train blues
TTITLE6=three rivers hotel
TTITLE7=the homestead of my dreams
TTITLE8=old gilbert
TTITLE9=by a fire of gidgee coals(+John Minson)
TTITLE10=god will prevail
TTITLE11=catchin' yellowbelly (+darren howard)
EXTD=
EXTT0=
EXTT1=
EXTT2=
EXTT3=
EXTT4=
EXTT5=
EXTT6=
EXTT7=
EXTT8=
EXTT9=
EXTT10=
EXTT11=
PLAYORDER=
